#!OML:ASF F:\VICON\USERDATA\INSTALL\rory3\rory3.ASF
:FULLY-SPECIFIED
:DEGREES
160
root 11.5549 17.7323 -7.81929 3.54688 -50.5627 -1.78405
lowerback 10.0619 3.90617 3.96576
upperback 1.14963 5.60816 0.18422
thorax -4.06113 2.70396 -2.75936
lowerneck -20.6353 -5.28311 -10.6096
upperneck 22.2527 -5.94571 7.30872
head 11.1845 -2.73488 3.49273
rclavicle 1.34528e-013 -9.14409e-015
rhumerus -31.382 -6.5302 -84.6666
rradius 29.2217
rwrist 7.4925
rhand -13.1212 11.8632
rfingers 7.12502
rthumb 12.9764 -17.7132
lclavicle 1.34528e-013 -9.14409e-015
lhumerus -43.6137 13.5659 76.3961
lradius 28.4119
lwrist -12.1569
lhand -17.9413 24.0532
lfingers 7.12502
lthumb 8.32702 53.869
rfemur 15.9933 2.66891 26.4149
rtibia 16.8617
rfoot -12.9939 4.54479
rtoes -9.62677
lfemur -25.6422 -4.68277 -17.7929
ltibia 14.1449
lfoot -3.04477 0.893986
ltoes -5.46872
161
root 11.4474 17.7479 -7.71213 3.58531 -50.6695 -1.70391
lowerback 9.8812 3.93544 3.80373
upperback 1.1064 5.62272 0.151736
thorax -4.01721 2.71504 -2.69257
lowerneck -20.8332 -5.26135 -10.4643
upperneck 22.3872 -5.9388 7.27001
head 11.2652 -2.72097 3.45567
rclavicle -1.8487e-014 1.39149e-014
rhumerus -31.4691 -7.06293 -84.5984
rradius 29.1134
rwrist 7.89661
rhand -12.7687 12.0554
rfingers 7.12502
rthumb 13.3161 -17.4991
lclavicle -1.8487e-014 1.39149e-014
lhumerus -43.4869 13.505 76.3557
lradius 28.2423
lwrist -12.1824
lhand -18.237 24.3027
lfingers 7.12502
lthumb 8.04164 54.1298
rfemur 16.2116 2.99641 26.3357
rtibia 17.084
rfoot -12.0017 4.75754
rtoes -9.89886
lfemur -25.4812 -4.02616 -18.1392
ltibia 14.3829
lfoot -2.2303 -0.609677
ltoes -5.59488
162
root 11.3468 17.7626 -7.59266 3.09841 -50.2394 -1.09371
lowerback 9.73142 3.78595 3.6587
upperback 1.12852 5.39534 -0.0203216
thorax -3.92316 2.60744 -2.7505
lowerneck -20.8337 -5.3102 -10.5321
upperneck 22.3178 -6.01773 7.40405
head 11.2546 -2.74536 3.50266
rclavicle 5.889e-014 1.59028e-014
rhumerus -31.6103 -7.19974 -84.665
rradius 29.1646
rwrist 7.72686
rhand -12.7228 11.9502
rfingers 7.12502
rthumb 13.3604 -17.6015
lclavicle 5.889e-014 1.59028e-014
lhumerus -43.413 13.292 76.3873
lradius 28.2347
lwrist -12.198
lhand -18.3588 24.5009
lfingers 7.12502
lthumb 7.92404 54.3324
rfemur 16.5224 2.81448 25.8793
rtibia 17.3849
rfoot -11.1118 4.97676
rtoes -10.0329
lfemur -25.2368 -3.87248 -18.8732
ltibia 14.6212
lfoot -1.51259 -2.09616
ltoes -4.77037
163
root 11.2409 17.7807 -7.47603 2.80185 -50.1598 -0.648021
lowerback 9.50157 3.77481 3.44868
upperback 1.12787 5.34652 -0.122479
thorax -3.80885 2.58975 -2.71607
lowerneck -20.7463 -5.33369 -10.4859
upperneck 22.2296 -6.05471 7.34569
head 11.2051 -2.76639 3.46625
rclavicle -8.99501e-015 5.56597e-015
rhumerus -31.8155 -7.14303 -84.7419
rradius 29.2611
rwrist 7.43974
rhand -12.9135 11.7417
rfingers 7.12502
rthumb 13.1766 -17.8219
lclavicle -8.99501e-015 5.56597e-015
lhumerus -43.4219 13.168 76.4594
lradius 28.3228
lwrist -12.0684
lhand -18.295 24.8402
lfingers 7.12502
lthumb 7.98559 54.6694
rfemur 16.6025 2.81686 25.4646
rtibia 17.9032
rfoot -10.2251 5.28022
rtoes -10.6852
lfemur -24.9138 -3.553 -19.4173
ltibia 14.7019
lfoot -0.965055 -3.32191
ltoes -4.36713
164
root 11.1308 17.7983 -7.36209 2.46073 -50.0841 -0.157588
lowerback 9.36087 3.74823 3.0665
upperback 1.0493 5.26856 -0.17145
thorax -3.8477 2.55554 -2.53947
lowerneck -20.6586 -5.30294 -10.513
upperneck 22.3186 -6.00553 7.29776
head 11.2159 -2.75548 3.46345
rclavicle -1.4064e-014 4.77083e-015
rhumerus -32.1403 -7.03921 -84.7454
rradius 29.3548
rwrist 7.23514
rhand -12.8859 11.8157
rfingers 7.12502
rthumb 13.2032 -17.7462
lclavicle -1.4064e-014 4.77083e-015
lhumerus -43.544 13.1975 76.459
lradius 28.4108
lwrist -11.8231
lhand -17.9523 25.0652
lfingers 7.12502
lthumb 8.31638 54.8815
rfemur 16.5707 2.80839 25.0394
rtibia 18.6348
rfoot -9.22641 5.61248
rtoes -12.1156
lfemur -24.4659 -3.49601 -19.8934
ltibia 14.6214
lfoot -0.544833 -4.25659
ltoes -4.33894
165
root 11.0164 17.8159 -7.24682 1.9418 -49.9413 0.567656
lowerback 9.20687 3.70069 2.47973
upperback 0.942802 5.14358 -0.21681
thorax -3.92822 2.50054 -2.24105
lowerneck -20.3993 -5.29656 -10.7203
upperneck 22.2981 -5.97141 7.3484
head 11.1646 -2.75776 3.52472
rclavicle -6.20705e-014 1.47101e-014
rhumerus -32.5113 -7.02351 -84.6315
rradius 29.3728
rwrist 7.2547
rhand -12.7541 11.9624
rfingers 7.12502
rthumb 13.3302 -17.5913
lclavicle -6.20705e-014 1.47101e-014
lhumerus -43.7317 13.3268 76.4176
lradius 28.4782
lwrist -11.8074
lhand -17.3635 25.2652
lfingers 7.12502
lthumb 8.88457 55.0581
rfemur 16.5318 2.80508 24.4432
rtibia 19.4778
rfoot -8.01033 6.17842
rtoes -11.0526
lfemur -23.9945 -3.26777 -20.5908
ltibia 14.573
lfoot -0.107511 -5.40496
ltoes -3.49189
